<svg width="185" height="75" viewBox="0 0 185 75" fill="none" xmlns="http://www.w3.org/2000/svg">
<path d="M10 42.5C10 39.1863 12.6863 36.5 16 36.5H33.5L36.5 38L38 41.5V58.5C38 61.8137 35.3137 64.5 32 64.5H16C12.6863 64.5 10 61.8137 10 58.5V42.5Z" fill="black"/>
<path d="M36.5 16C36.5 12.6863 39.1863 10 42.5 10H58.5C61.8137 10 64.5 12.6863 64.5 16V32C64.5 35.3137 61.8137 38 58.5 38H41.5H36.5V33.5V16Z" fill="black"/>
<path d="M41.5 38H36.5L38 41.5L38.1508 40.1429C38.3305 38.5254 39.956 37.4853 41.5 38Z" fill="black"/>
<path d="M36.5 38V33.5C37.0057 34.7642 36.1793 36.1651 34.8282 36.334L33.5 36.5L36.5 38Z" fill="black"/>
<path d="M65 52.5C65 59.1274 59.6274 64.5 53 64.5C46.3726 64.5 41 59.1274 41 52.5C41 45.8726 46.3726 40.5 53 40.5C59.6274 40.5 65 45.8726 65 52.5Z" fill="black"/>
<path d="M76.8636 22.4318H75L79.1875 10.7954H81.2159L85.4034 22.4318H83.5398L80.25 12.9091H80.1591L76.8636 22.4318ZM77.1761 17.875H83.2216V19.3523H77.1761V17.875Z" fill="black"/>
<path d="M90.4744 13.7045V15.0682H85.7074V13.7045H90.4744ZM86.9858 11.6136H88.6847V19.8693C88.6847 20.1988 88.7339 20.447 88.8324 20.6136C88.9309 20.7765 89.0578 20.8882 89.2131 20.9488C89.3722 21.0057 89.5445 21.0341 89.7301 21.0341C89.8665 21.0341 89.9858 21.0246 90.0881 21.0057C90.1903 20.9867 90.2699 20.9716 90.3267 20.9602L90.6335 22.3636C90.535 22.4015 90.3949 22.4394 90.2131 22.4773C90.0312 22.5189 89.804 22.5417 89.5312 22.5454C89.0843 22.553 88.6676 22.4735 88.2812 22.3068C87.8949 22.1401 87.5824 21.8826 87.3438 21.5341C87.1051 21.1856 86.9858 20.7481 86.9858 20.2216V11.6136Z" fill="black"/>
<path d="M96.4276 13.7045V15.0682H91.6605V13.7045H96.4276ZM92.9389 11.6136H94.6378V19.8693C94.6378 20.1988 94.687 20.447 94.7855 20.6136C94.884 20.7765 95.0109 20.8882 95.1662 20.9488C95.3253 21.0057 95.4976 21.0341 95.6832 21.0341C95.8196 21.0341 95.9389 21.0246 96.0412 21.0057C96.1435 20.9867 96.223 20.9716 96.2798 20.9602L96.5866 22.3636C96.4882 22.4015 96.348 22.4394 96.1662 22.4773C95.9844 22.5189 95.7571 22.5417 95.4844 22.5454C95.0374 22.553 94.6207 22.4735 94.2344 22.3068C93.848 22.1401 93.5355 21.8826 93.2969 21.5341C93.0582 21.1856 92.9389 20.7481 92.9389 20.2216V11.6136Z" fill="black"/>
<path d="M101.974 22.6079C101.115 22.6079 100.374 22.4242 99.7528 22.0568C99.1354 21.6856 98.6581 21.1648 98.321 20.4943C97.9877 19.8201 97.821 19.0303 97.821 18.125C97.821 17.231 97.9877 16.4432 98.321 15.7613C98.6581 15.0795 99.1278 14.5473 99.7301 14.1648C100.336 13.7822 101.045 13.5909 101.855 13.5909C102.348 13.5909 102.825 13.6723 103.287 13.8352C103.749 13.9981 104.164 14.2538 104.531 14.6023C104.899 14.9507 105.188 15.4034 105.401 15.9602C105.613 16.5132 105.719 17.1856 105.719 17.9773V18.5795H98.7812V17.3068H104.054C104.054 16.8598 103.963 16.464 103.781 16.1193C103.599 15.7708 103.344 15.4962 103.014 15.2954C102.688 15.0947 102.306 14.9943 101.866 14.9943C101.389 14.9943 100.973 15.1117 100.616 15.3466C100.264 15.5776 99.9915 15.8807 99.7983 16.2557C99.6089 16.6269 99.5142 17.0303 99.5142 17.4659V18.4602C99.5142 19.0435 99.6165 19.5398 99.821 19.9489C100.029 20.3579 100.319 20.6704 100.69 20.8863C101.062 21.0985 101.495 21.2045 101.991 21.2045C102.313 21.2045 102.607 21.1591 102.872 21.0682C103.137 20.9735 103.366 20.8333 103.56 20.6477C103.753 20.4621 103.901 20.2329 104.003 19.9602L105.611 20.25C105.482 20.7235 105.251 21.1382 104.918 21.4943C104.588 21.8466 104.173 22.1212 103.673 22.3182C103.177 22.5114 102.611 22.6079 101.974 22.6079Z" fill="black"/>
<path d="M109.303 17.25V22.4318H107.604V13.7045H109.234V15.125H109.342C109.543 14.6629 109.857 14.2917 110.286 14.0113C110.717 13.731 111.261 13.5909 111.916 13.5909C112.511 13.5909 113.032 13.7159 113.479 13.9659C113.926 14.2121 114.272 14.5795 114.518 15.0682C114.765 15.5568 114.888 16.161 114.888 16.8807V22.4318H113.189V17.0852C113.189 16.4526 113.024 15.9583 112.695 15.6023C112.365 15.2424 111.912 15.0625 111.337 15.0625C110.943 15.0625 110.592 15.1477 110.286 15.3182C109.982 15.4886 109.742 15.7386 109.564 16.0682C109.39 16.3939 109.303 16.7879 109.303 17.25Z" fill="black"/>
<path d="M120.433 22.6023C119.729 22.6023 119.1 22.4223 118.547 22.0625C117.998 21.6989 117.566 21.1818 117.251 20.5113C116.941 19.8371 116.786 19.0284 116.786 18.0852C116.786 17.142 116.943 16.3352 117.257 15.6648C117.575 14.9943 118.011 14.481 118.564 14.125C119.117 13.7689 119.744 13.5909 120.445 13.5909C120.986 13.5909 121.422 13.6818 121.751 13.8636C122.085 14.0417 122.342 14.25 122.524 14.4886C122.71 14.7273 122.854 14.9375 122.956 15.1193H123.058V10.7954H124.757V22.4318H123.098V21.0738H122.956C122.854 21.2595 122.706 21.4716 122.513 21.7102C122.323 21.9488 122.062 22.1572 121.729 22.3352C121.395 22.5132 120.964 22.6023 120.433 22.6023ZM120.808 21.1534C121.297 21.1534 121.71 21.0246 122.047 20.767C122.388 20.5057 122.645 20.1439 122.82 19.6818C122.998 19.2197 123.087 18.6818 123.087 18.0682C123.087 17.4621 123 16.9318 122.825 16.4773C122.651 16.0227 122.395 15.6685 122.058 15.4148C121.721 15.161 121.304 15.0341 120.808 15.0341C120.297 15.0341 119.871 15.1667 119.53 15.4318C119.189 15.697 118.931 16.0587 118.757 16.517C118.587 16.9754 118.501 17.4924 118.501 18.0682C118.501 18.6515 118.589 19.1761 118.763 19.642C118.937 20.1079 119.195 20.4773 119.536 20.75C119.88 21.0189 120.304 21.1534 120.808 21.1534Z" fill="black"/>
<path d="M129.722 22.625C129.169 22.625 128.669 22.5227 128.222 22.3182C127.775 22.1098 127.42 21.8087 127.159 21.4148C126.902 21.0208 126.773 20.5379 126.773 19.9659C126.773 19.4735 126.867 19.0682 127.057 18.75C127.246 18.4318 127.502 18.1799 127.824 17.9943C128.146 17.8087 128.506 17.6685 128.903 17.5739C129.301 17.4792 129.706 17.4072 130.119 17.3579C130.642 17.2973 131.066 17.2481 131.392 17.2102C131.718 17.1685 131.955 17.1023 132.102 17.0114C132.25 16.9204 132.324 16.7727 132.324 16.5682V16.5284C132.324 16.0322 132.184 15.6477 131.903 15.375C131.627 15.1023 131.214 14.9659 130.665 14.9659C130.093 14.9659 129.642 15.0928 129.312 15.3466C128.987 15.5966 128.761 15.875 128.636 16.1818L127.04 15.8182C127.229 15.2879 127.506 14.8598 127.869 14.5341C128.237 14.2045 128.659 13.9659 129.136 13.8182C129.614 13.6667 130.116 13.5909 130.642 13.5909C130.991 13.5909 131.36 13.6326 131.75 13.7159C132.144 13.7954 132.511 13.9432 132.852 14.1591C133.197 14.375 133.479 14.6837 133.699 15.0852C133.919 15.4829 134.028 16 134.028 16.6364V22.4318H132.369V21.2386H132.301C132.191 21.4583 132.027 21.6742 131.807 21.8863C131.587 22.0985 131.305 22.2746 130.96 22.4148C130.616 22.5549 130.203 22.625 129.722 22.625ZM130.091 21.2613C130.561 21.2613 130.962 21.1685 131.295 20.9829C131.633 20.7973 131.888 20.5549 132.062 20.2557C132.241 19.9526 132.33 19.6288 132.33 19.2841V18.1591C132.269 18.2197 132.152 18.2765 131.977 18.3295C131.807 18.3788 131.612 18.4223 131.392 18.4602C131.172 18.4943 130.958 18.5265 130.75 18.5568C130.542 18.5833 130.367 18.606 130.227 18.625C129.898 18.6667 129.597 18.7367 129.324 18.8352C129.055 18.9337 128.839 19.0757 128.676 19.2613C128.517 19.4432 128.438 19.6856 128.438 19.9886C128.438 20.4091 128.593 20.7273 128.903 20.9432C129.214 21.1553 129.61 21.2613 130.091 21.2613Z" fill="black"/>
<path d="M137.99 17.25V22.4318H136.291V13.7045H137.922V15.125H138.03C138.231 14.6629 138.545 14.2917 138.973 14.0113C139.405 13.731 139.948 13.5909 140.604 13.5909C141.198 13.5909 141.719 13.7159 142.166 13.9659C142.613 14.2121 142.96 14.5795 143.206 15.0682C143.452 15.5568 143.575 16.161 143.575 16.8807V22.4318H141.876V17.0852C141.876 16.4526 141.712 15.9583 141.382 15.6023C141.053 15.2424 140.6 15.0625 140.024 15.0625C139.63 15.0625 139.28 15.1477 138.973 15.3182C138.67 15.4886 138.429 15.7386 138.251 16.0682C138.077 16.3939 137.99 16.7879 137.99 17.25Z" fill="black"/>
<path d="M149.53 22.6079C148.685 22.6079 147.958 22.4167 147.348 22.0341C146.742 21.6477 146.276 21.1155 145.95 20.4375C145.625 19.7595 145.462 18.9829 145.462 18.1079C145.462 17.2216 145.628 16.4394 145.962 15.7613C146.295 15.0795 146.765 14.5473 147.371 14.1648C147.977 13.7822 148.691 13.5909 149.513 13.5909C150.176 13.5909 150.767 13.714 151.286 13.9602C151.804 14.2026 152.223 14.5435 152.541 14.9829C152.863 15.4223 153.054 15.9356 153.115 16.5227H151.462C151.371 16.1136 151.162 15.7613 150.837 15.4659C150.515 15.1704 150.083 15.0227 149.541 15.0227C149.068 15.0227 148.653 15.1477 148.297 15.3977C147.945 15.6439 147.67 15.9962 147.473 16.4545C147.276 16.9091 147.178 17.447 147.178 18.0682C147.178 18.7045 147.274 19.2538 147.467 19.7159C147.661 20.178 147.933 20.536 148.286 20.7898C148.642 21.0435 149.06 21.1704 149.541 21.1704C149.863 21.1704 150.155 21.1117 150.416 20.9943C150.681 20.8731 150.903 20.7007 151.081 20.4773C151.263 20.2538 151.39 19.9848 151.462 19.6704H153.115C153.054 20.2348 152.871 20.7386 152.564 21.1818C152.257 21.625 151.846 21.9735 151.331 22.2273C150.82 22.481 150.219 22.6079 149.53 22.6079Z" fill="black"/>
<path d="M158.693 22.6079C157.833 22.6079 157.093 22.4242 156.472 22.0568C155.854 21.6856 155.377 21.1648 155.04 20.4943C154.706 19.8201 154.54 19.0303 154.54 18.125C154.54 17.231 154.706 16.4432 155.04 15.7613C155.377 15.0795 155.847 14.5473 156.449 14.1648C157.055 13.7822 157.763 13.5909 158.574 13.5909C159.066 13.5909 159.544 13.6723 160.006 13.8352C160.468 13.9981 160.883 14.2538 161.25 14.6023C161.617 14.9507 161.907 15.4034 162.119 15.9602C162.331 16.5132 162.438 17.1856 162.438 17.9773V18.5795H155.5V17.3068H160.773C160.773 16.8598 160.682 16.464 160.5 16.1193C160.318 15.7708 160.062 15.4962 159.733 15.2954C159.407 15.0947 159.025 14.9943 158.585 14.9943C158.108 14.9943 157.691 15.1117 157.335 15.3466C156.983 15.5776 156.71 15.8807 156.517 16.2557C156.328 16.6269 156.233 17.0303 156.233 17.4659V18.4602C156.233 19.0435 156.335 19.5398 156.54 19.9489C156.748 20.3579 157.038 20.6704 157.409 20.8863C157.78 21.0985 158.214 21.2045 158.71 21.2045C159.032 21.2045 159.326 21.1591 159.591 21.0682C159.856 20.9735 160.085 20.8333 160.278 20.6477C160.472 20.4621 160.619 20.2329 160.722 19.9602L162.33 20.25C162.201 20.7235 161.97 21.1382 161.636 21.4943C161.307 21.8466 160.892 22.1212 160.392 22.3182C159.896 22.5114 159.33 22.6079 158.693 22.6079Z" fill="black"/>
<path d="M75.8807 29.7954H78.0114L81.7159 38.8409H81.8523L85.5568 29.7954H87.6875V41.4318H86.017V33.0113H85.9091L82.4773 41.4148H81.0909L77.6591 33.0057H77.5511V41.4318H75.8807V29.7954Z" fill="black"/>
<path d="M92.6435 41.625C92.0904 41.625 91.5904 41.5227 91.1435 41.3182C90.6965 41.1098 90.3423 40.8087 90.081 40.4148C89.8234 40.0208 89.6946 39.5379 89.6946 38.9659C89.6946 38.4735 89.7893 38.0682 89.9787 37.75C90.1681 37.4318 90.4238 37.1799 90.7457 36.9943C91.0677 36.8087 91.4276 36.6685 91.8253 36.5739C92.223 36.4792 92.6283 36.4072 93.0412 36.3579C93.5639 36.2973 93.9882 36.2481 94.3139 36.2102C94.6397 36.1685 94.8764 36.1023 95.0241 36.0114C95.1719 35.9204 95.2457 35.7727 95.2457 35.5682V35.5284C95.2457 35.0322 95.1056 34.6477 94.8253 34.375C94.5488 34.1023 94.1359 33.9659 93.5866 33.9659C93.0147 33.9659 92.5639 34.0928 92.2344 34.3466C91.9086 34.5966 91.6832 34.875 91.5582 35.1818L89.9616 34.8182C90.151 34.2879 90.4276 33.8598 90.7912 33.5341C91.1586 33.2045 91.581 32.9659 92.0582 32.8182C92.5355 32.6667 93.0374 32.5909 93.5639 32.5909C93.9124 32.5909 94.2817 32.6326 94.6719 32.7159C95.0658 32.7954 95.4332 32.9432 95.7741 33.1591C96.1188 33.375 96.401 33.6837 96.6207 34.0852C96.8404 34.4829 96.9503 35 96.9503 35.6364V41.4318H95.2912V40.2386H95.223C95.1132 40.4583 94.9484 40.6742 94.7287 40.8864C94.509 41.0985 94.2268 41.2746 93.8821 41.4148C93.5374 41.5549 93.1245 41.625 92.6435 41.625ZM93.0128 40.2614C93.4825 40.2614 93.884 40.1685 94.2173 39.9829C94.5545 39.7973 94.8101 39.5549 94.9844 39.2557C95.1624 38.9526 95.2514 38.6288 95.2514 38.2841V37.1591C95.1908 37.2197 95.0734 37.2765 94.8991 37.3295C94.7287 37.3788 94.5336 37.4223 94.3139 37.4602C94.0942 37.4943 93.8802 37.5265 93.6719 37.5568C93.4635 37.5833 93.2893 37.606 93.1491 37.625C92.8196 37.6667 92.5185 37.7367 92.2457 37.8352C91.9768 37.9337 91.7609 38.0757 91.598 38.2614C91.4389 38.4432 91.3594 38.6856 91.3594 38.9886C91.3594 39.4091 91.5147 39.7273 91.8253 39.9432C92.1359 40.1553 92.5317 40.2614 93.0128 40.2614Z" fill="black"/>
<path d="M100.912 36.25V41.4318H99.2131V32.7045H100.844V34.125H100.952C101.152 33.6629 101.467 33.2917 101.895 33.0113C102.327 32.731 102.87 32.5909 103.526 32.5909C104.12 32.5909 104.641 32.7159 105.088 32.9659C105.535 33.2121 105.882 33.5795 106.128 34.0682C106.374 34.5568 106.497 35.161 106.497 35.8807V41.4318H104.798V36.0852C104.798 35.4526 104.634 34.9583 104.304 34.6023C103.974 34.2424 103.522 34.0625 102.946 34.0625C102.552 34.0625 102.202 34.1477 101.895 34.3182C101.592 34.4886 101.351 34.7386 101.173 35.0682C100.999 35.3939 100.912 35.7879 100.912 36.25Z" fill="black"/>
<path d="M111.315 41.625C110.762 41.625 110.262 41.5227 109.815 41.3182C109.368 41.1098 109.014 40.8087 108.753 40.4148C108.495 40.0208 108.366 39.5379 108.366 38.9659C108.366 38.4735 108.461 38.0682 108.651 37.75C108.84 37.4318 109.096 37.1799 109.418 36.9943C109.74 36.8087 110.099 36.6685 110.497 36.5739C110.895 36.4792 111.3 36.4072 111.713 36.3579C112.236 36.2973 112.66 36.2481 112.986 36.2102C113.312 36.1685 113.548 36.1023 113.696 36.0114C113.844 35.9204 113.918 35.7727 113.918 35.5682V35.5284C113.918 35.0322 113.777 34.6477 113.497 34.375C113.221 34.1023 112.808 33.9659 112.259 33.9659C111.687 33.9659 111.236 34.0928 110.906 34.3466C110.58 34.5966 110.355 34.875 110.23 35.1818L108.634 34.8182C108.823 34.2879 109.099 33.8598 109.463 33.5341C109.83 33.2045 110.253 32.9659 110.73 32.8182C111.207 32.6667 111.709 32.5909 112.236 32.5909C112.584 32.5909 112.954 32.6326 113.344 32.7159C113.738 32.7954 114.105 32.9432 114.446 33.1591C114.791 33.375 115.073 33.6837 115.293 34.0852C115.512 34.4829 115.622 35 115.622 35.6364V41.4318H113.963V40.2386H113.895C113.785 40.4583 113.62 40.6742 113.401 40.8864C113.181 41.0985 112.899 41.2746 112.554 41.4148C112.209 41.5549 111.796 41.625 111.315 41.625ZM111.685 40.2614C112.154 40.2614 112.556 40.1685 112.889 39.9829C113.226 39.7973 113.482 39.5549 113.656 39.2557C113.834 38.9526 113.923 38.6288 113.923 38.2841V37.1591C113.863 37.2197 113.745 37.2765 113.571 37.3295C113.401 37.3788 113.205 37.4223 112.986 37.4602C112.766 37.4943 112.552 37.5265 112.344 37.5568C112.135 37.5833 111.961 37.606 111.821 37.625C111.491 37.6667 111.19 37.7367 110.918 37.8352C110.649 37.9337 110.433 38.0757 110.27 38.2614C110.111 38.4432 110.031 38.6856 110.031 38.9886C110.031 39.4091 110.187 39.7273 110.497 39.9432C110.808 40.1553 111.204 40.2614 111.685 40.2614Z" fill="black"/>
<path d="M121.544 44.8863C120.851 44.8863 120.254 44.7954 119.754 44.6136C119.258 44.4318 118.853 44.1913 118.538 43.892C118.224 43.5928 117.989 43.2651 117.834 42.9091L119.294 42.3068C119.396 42.4735 119.533 42.6496 119.703 42.8352C119.877 43.0246 120.112 43.1856 120.408 43.3182C120.707 43.4507 121.091 43.517 121.561 43.517C122.205 43.517 122.737 43.3598 123.158 43.0454C123.578 42.7348 123.788 42.2386 123.788 41.5568V39.8409H123.68C123.578 40.0265 123.43 40.2329 123.237 40.4602C123.048 40.6875 122.786 40.8845 122.453 41.0511C122.12 41.2178 121.686 41.3011 121.152 41.3011C120.463 41.3011 119.841 41.1401 119.288 40.8182C118.739 40.4924 118.304 40.0132 117.982 39.3807C117.663 38.7443 117.504 37.9621 117.504 37.0341C117.504 36.106 117.661 35.3106 117.976 34.6477C118.294 33.9848 118.73 33.4773 119.283 33.125C119.836 32.7689 120.463 32.5909 121.163 32.5909C121.705 32.5909 122.143 32.6818 122.476 32.8636C122.809 33.0417 123.069 33.25 123.254 33.4886C123.444 33.7273 123.589 33.9375 123.692 34.1193H123.817V32.7045H125.482V41.625C125.482 42.375 125.307 42.9905 124.959 43.4716C124.61 43.9526 124.139 44.3087 123.544 44.5398C122.953 44.7708 122.286 44.8863 121.544 44.8863ZM121.527 39.892C122.016 39.892 122.429 39.7784 122.766 39.5511C123.107 39.3201 123.364 38.9905 123.538 38.5625C123.716 38.1307 123.805 37.6136 123.805 37.0114C123.805 36.4242 123.718 35.9072 123.544 35.4602C123.37 35.0132 123.114 34.6648 122.777 34.4148C122.44 34.161 122.023 34.0341 121.527 34.0341C121.016 34.0341 120.589 34.1667 120.249 34.4318C119.908 34.6932 119.65 35.0492 119.476 35.5C119.305 35.9507 119.22 36.4545 119.22 37.0114C119.22 37.5833 119.307 38.0852 119.482 38.517C119.656 38.9489 119.913 39.286 120.254 39.5284C120.599 39.7708 121.023 39.892 121.527 39.892Z" fill="black"/>
<path d="M131.521 41.6079C130.661 41.6079 129.921 41.4242 129.3 41.0568C128.682 40.6856 128.205 40.1648 127.868 39.4943C127.535 38.8201 127.368 38.0303 127.368 37.125C127.368 36.231 127.535 35.4432 127.868 34.7613C128.205 34.0795 128.675 33.5473 129.277 33.1648C129.883 32.7822 130.591 32.5909 131.402 32.5909C131.894 32.5909 132.372 32.6723 132.834 32.8352C133.296 32.9981 133.711 33.2538 134.078 33.6023C134.446 33.9507 134.735 34.4034 134.947 34.9602C135.16 35.5132 135.266 36.1856 135.266 36.9773V37.5795H128.328V36.3068H133.601C133.601 35.8598 133.51 35.464 133.328 35.1193C133.146 34.7708 132.891 34.4962 132.561 34.2954C132.235 34.0947 131.853 33.9943 131.413 33.9943C130.936 33.9943 130.519 34.1117 130.163 34.3466C129.811 34.5776 129.538 34.8807 129.345 35.2557C129.156 35.6269 129.061 36.0303 129.061 36.4659V37.4602C129.061 38.0435 129.163 38.5398 129.368 38.9489C129.576 39.3579 129.866 39.6704 130.237 39.8864C130.608 40.0985 131.042 40.2045 131.538 40.2045C131.86 40.2045 132.154 40.1591 132.419 40.0682C132.684 39.9735 132.913 39.8333 133.107 39.6477C133.3 39.4621 133.447 39.2329 133.55 38.9602L135.158 39.25C135.029 39.7235 134.798 40.1382 134.464 40.4943C134.135 40.8466 133.72 41.1212 133.22 41.3182C132.724 41.5114 132.158 41.6079 131.521 41.6079Z" fill="black"/>
<path d="M137.151 41.4318V32.7045H138.781V34.125H138.889C139.071 33.6439 139.368 33.2689 139.781 33C140.194 32.7273 140.688 32.5909 141.264 32.5909C141.848 32.5909 142.336 32.7273 142.73 33C143.128 33.2727 143.421 33.6477 143.611 34.125H143.702C143.91 33.6591 144.241 33.2879 144.696 33.0113C145.151 32.731 145.692 32.5909 146.321 32.5909C147.113 32.5909 147.759 32.839 148.259 33.3352C148.762 33.8314 149.014 34.5795 149.014 35.5795V41.4318H147.315V35.7386C147.315 35.1477 147.154 34.7197 146.832 34.4545C146.51 34.1894 146.126 34.0568 145.679 34.0568C145.126 34.0568 144.696 34.2273 144.389 34.5682C144.082 34.9053 143.929 35.339 143.929 35.8693V41.4318H142.236V35.6307C142.236 35.1572 142.088 34.7765 141.793 34.4886C141.497 34.2007 141.113 34.0568 140.639 34.0568C140.317 34.0568 140.02 34.142 139.747 34.3125C139.478 34.4792 139.26 34.7121 139.094 35.0114C138.931 35.3106 138.849 35.6572 138.849 36.0511V41.4318H137.151Z" fill="black"/>
<path d="M155.053 41.6079C154.193 41.6079 153.452 41.4242 152.831 41.0568C152.214 40.6856 151.736 40.1648 151.399 39.4943C151.066 38.8201 150.899 38.0303 150.899 37.125C150.899 36.231 151.066 35.4432 151.399 34.7613C151.736 34.0795 152.206 33.5473 152.808 33.1648C153.414 32.7822 154.123 32.5909 154.933 32.5909C155.426 32.5909 155.903 32.6723 156.365 32.8352C156.827 32.9981 157.242 33.2538 157.609 33.6023C157.977 33.9507 158.267 34.4034 158.479 34.9602C158.691 35.5132 158.797 36.1856 158.797 36.9773V37.5795H151.859V36.3068H157.132C157.132 35.8598 157.041 35.464 156.859 35.1193C156.678 34.7708 156.422 34.4962 156.092 34.2954C155.767 34.0947 155.384 33.9943 154.945 33.9943C154.467 33.9943 154.051 34.1117 153.695 34.3466C153.342 34.5776 153.07 34.8807 152.876 35.2557C152.687 35.6269 152.592 36.0303 152.592 36.4659V37.4602C152.592 38.0435 152.695 38.5398 152.899 38.9489C153.107 39.3579 153.397 39.6704 153.768 39.8864C154.14 40.0985 154.573 40.2045 155.07 40.2045C155.392 40.2045 155.685 40.1591 155.95 40.0682C156.215 39.9735 156.445 39.8333 156.638 39.6477C156.831 39.4621 156.979 39.2329 157.081 38.9602L158.689 39.25C158.56 39.7235 158.329 40.1382 157.996 40.4943C157.666 40.8466 157.251 41.1212 156.751 41.3182C156.255 41.5114 155.689 41.6079 155.053 41.6079Z" fill="black"/>
<path d="M162.381 36.25V41.4318H160.682V32.7045H162.312V34.125H162.42C162.621 33.6629 162.936 33.2917 163.364 33.0113C163.795 32.731 164.339 32.5909 164.994 32.5909C165.589 32.5909 166.11 32.7159 166.557 32.9659C167.004 33.2121 167.35 33.5795 167.597 34.0682C167.843 34.5568 167.966 35.161 167.966 35.8807V41.4318H166.267V36.0852C166.267 35.4526 166.102 34.9583 165.773 34.6023C165.443 34.2424 164.991 34.0625 164.415 34.0625C164.021 34.0625 163.67 34.1477 163.364 34.3182C163.061 34.4886 162.82 34.7386 162.642 35.0682C162.468 35.3939 162.381 35.7879 162.381 36.25Z" fill="black"/>
<path d="M174.318 32.7045V34.0682H169.551V32.7045H174.318ZM170.83 30.6136H172.528V38.8693C172.528 39.1989 172.578 39.447 172.676 39.6136C172.775 39.7765 172.902 39.8882 173.057 39.9489C173.216 40.0057 173.388 40.0341 173.574 40.0341C173.71 40.0341 173.83 40.0246 173.932 40.0057C174.034 39.9867 174.114 39.9716 174.17 39.9602L174.477 41.3636C174.379 41.4015 174.239 41.4394 174.057 41.4773C173.875 41.5189 173.648 41.5417 173.375 41.5454C172.928 41.553 172.511 41.4735 172.125 41.3068C171.739 41.1401 171.426 40.8826 171.188 40.5341C170.949 40.1856 170.83 39.7481 170.83 39.2216V30.6136Z" fill="black"/>
<path d="M82.2273 51.8523C82.1667 51.3144 81.9167 50.8977 81.4773 50.6023C81.0379 50.303 80.4848 50.1534 79.8182 50.1534C79.3409 50.1534 78.928 50.2292 78.5795 50.3807C78.2311 50.5284 77.9602 50.7329 77.767 50.9943C77.5777 51.2519 77.483 51.5454 77.483 51.875C77.483 52.1515 77.5473 52.3901 77.6761 52.5909C77.8087 52.7917 77.9811 52.9602 78.1932 53.0966C78.4091 53.2292 78.6402 53.3409 78.8864 53.4318C79.1326 53.5189 79.3693 53.5909 79.5966 53.6477L80.733 53.9432C81.1042 54.0341 81.4848 54.1572 81.875 54.3125C82.2652 54.4678 82.6269 54.6723 82.9602 54.9261C83.2936 55.1799 83.5625 55.4943 83.767 55.8693C83.9754 56.2443 84.0795 56.6932 84.0795 57.2159C84.0795 57.875 83.9091 58.4602 83.5682 58.9716C83.2311 59.4829 82.7405 59.8863 82.0966 60.1818C81.4564 60.4773 80.6818 60.625 79.7727 60.625C78.9015 60.625 78.1477 60.4867 77.5114 60.2102C76.875 59.9337 76.3769 59.5417 76.017 59.0341C75.6572 58.5227 75.4583 57.9167 75.4205 57.2159H77.1818C77.2159 57.6364 77.3523 57.9867 77.5909 58.267C77.8333 58.5435 78.142 58.75 78.517 58.8863C78.8958 59.0189 79.3106 59.0852 79.7614 59.0852C80.2576 59.0852 80.6989 59.0076 81.0852 58.8523C81.4754 58.6932 81.7822 58.4735 82.0057 58.1932C82.2292 57.9091 82.3409 57.5776 82.3409 57.1988C82.3409 56.8542 82.2424 56.572 82.0455 56.3523C81.8523 56.1326 81.589 55.9507 81.2557 55.8068C80.9261 55.6629 80.553 55.536 80.1364 55.4261L78.7614 55.0511C77.8295 54.7973 77.0909 54.4242 76.5455 53.9318C76.0038 53.4394 75.733 52.7879 75.733 51.9773C75.733 51.3068 75.9148 50.7216 76.2784 50.2216C76.642 49.7216 77.1345 49.3333 77.7557 49.0568C78.3769 48.7765 79.0777 48.6363 79.858 48.6363C80.6458 48.6363 81.3409 48.7746 81.9432 49.0511C82.5492 49.3276 83.0265 49.7083 83.375 50.1932C83.7235 50.6742 83.9053 51.2273 83.9205 51.8523H82.2273Z" fill="black"/>
<path d="M87.1151 63.7045C86.8613 63.7045 86.6302 63.6837 86.4219 63.642C86.2135 63.6042 86.0582 63.5625 85.956 63.517L86.3651 62.125C86.6757 62.2083 86.9522 62.2443 87.1946 62.2329C87.437 62.2216 87.651 62.1307 87.8366 61.9602C88.026 61.7898 88.1927 61.5113 88.3366 61.125L88.5469 60.5454L85.3537 51.7045H87.1719L89.3821 58.4773H89.473L91.6832 51.7045H93.5071L89.9105 61.5966C89.7438 62.0511 89.5317 62.4356 89.2741 62.75C89.0166 63.0682 88.7098 63.3068 88.3537 63.4659C87.9976 63.625 87.5848 63.7045 87.1151 63.7045Z" fill="black"/>
<path d="M101.643 53.8352L100.104 54.1079C100.039 53.911 99.937 53.7235 99.7969 53.5454C99.6605 53.3674 99.4749 53.2216 99.2401 53.1079C99.0052 52.9943 98.7116 52.9375 98.3594 52.9375C97.8783 52.9375 97.4768 53.0454 97.1548 53.2613C96.8329 53.4735 96.6719 53.7481 96.6719 54.0852C96.6719 54.3769 96.7798 54.6117 96.9957 54.7898C97.2116 54.9678 97.5601 55.1136 98.0412 55.2273L99.4276 55.5454C100.231 55.731 100.829 56.017 101.223 56.4034C101.617 56.7898 101.814 57.2917 101.814 57.9091C101.814 58.4318 101.662 58.8977 101.359 59.3068C101.06 59.7121 100.642 60.0303 100.104 60.2613C99.5696 60.4924 98.9503 60.6079 98.2457 60.6079C97.2685 60.6079 96.4711 60.3996 95.8537 59.9829C95.2363 59.5625 94.8575 58.9659 94.7173 58.1932L96.3594 57.9432C96.4616 58.3712 96.6719 58.6951 96.9901 58.9148C97.3082 59.1307 97.723 59.2386 98.2344 59.2386C98.7912 59.2386 99.2363 59.1231 99.5696 58.892C99.9029 58.6572 100.07 58.3712 100.07 58.0341C100.07 57.7613 99.9673 57.5322 99.7628 57.3466C99.562 57.161 99.2533 57.0208 98.8366 56.9261L97.3594 56.6023C96.545 56.4167 95.9427 56.1212 95.5526 55.7159C95.1662 55.3106 94.973 54.7973 94.973 54.1761C94.973 53.661 95.117 53.2102 95.4048 52.8238C95.6927 52.4375 96.0904 52.1363 96.598 51.9204C97.1056 51.7007 97.687 51.5909 98.3423 51.5909C99.2855 51.5909 100.028 51.7954 100.57 52.2045C101.111 52.6098 101.469 53.1534 101.643 53.8352Z" fill="black"/>
<path d="M107.756 51.7045V53.0682H102.989V51.7045H107.756ZM104.267 49.6136H105.966V57.8693C105.966 58.1988 106.015 58.447 106.114 58.6136C106.212 58.7765 106.339 58.8882 106.494 58.9488C106.653 59.0057 106.826 59.0341 107.011 59.0341C107.148 59.0341 107.267 59.0246 107.369 59.0057C107.472 58.9867 107.551 58.9716 107.608 58.9602L107.915 60.3636C107.816 60.4015 107.676 60.4394 107.494 60.4773C107.312 60.5189 107.085 60.5417 106.812 60.5454C106.366 60.553 105.949 60.4735 105.562 60.3068C105.176 60.1401 104.864 59.8826 104.625 59.5341C104.386 59.1856 104.267 58.7481 104.267 58.2216V49.6136Z" fill="black"/>
<path d="M113.303 60.6079C112.443 60.6079 111.702 60.4242 111.081 60.0568C110.464 59.6856 109.986 59.1648 109.649 58.4943C109.316 57.8201 109.149 57.0303 109.149 56.125C109.149 55.231 109.316 54.4432 109.649 53.7613C109.986 53.0795 110.456 52.5473 111.058 52.1648C111.664 51.7822 112.373 51.5909 113.183 51.5909C113.676 51.5909 114.153 51.6723 114.615 51.8352C115.077 51.9981 115.492 52.2538 115.859 52.6023C116.227 52.9507 116.517 53.4034 116.729 53.9602C116.941 54.5132 117.047 55.1856 117.047 55.9773V56.5795H110.109V55.3068H115.382C115.382 54.8598 115.291 54.464 115.109 54.1193C114.928 53.7708 114.672 53.4962 114.342 53.2954C114.017 53.0947 113.634 52.9943 113.195 52.9943C112.717 52.9943 112.301 53.1117 111.945 53.3466C111.592 53.5776 111.32 53.8807 111.126 54.2557C110.937 54.6269 110.842 55.0303 110.842 55.4659V56.4602C110.842 57.0435 110.945 57.5398 111.149 57.9488C111.357 58.3579 111.647 58.6704 112.018 58.8863C112.39 59.0985 112.823 59.2045 113.32 59.2045C113.642 59.2045 113.935 59.1591 114.2 59.0682C114.465 58.9735 114.695 58.8333 114.888 58.6477C115.081 58.4621 115.229 58.2329 115.331 57.9602L116.939 58.25C116.81 58.7235 116.579 59.1382 116.246 59.4943C115.916 59.8466 115.501 60.1212 115.001 60.3182C114.505 60.5113 113.939 60.6079 113.303 60.6079Z" fill="black"/>
<path d="M118.932 60.4318V51.7045H120.562V53.125H120.67C120.852 52.6439 121.15 52.2689 121.562 52C121.975 51.7273 122.47 51.5909 123.045 51.5909C123.629 51.5909 124.117 51.7273 124.511 52C124.909 52.2727 125.203 52.6477 125.392 53.125H125.483C125.691 52.6591 126.023 52.2879 126.477 52.0113C126.932 51.731 127.473 51.5909 128.102 51.5909C128.894 51.5909 129.54 51.839 130.04 52.3352C130.544 52.8314 130.795 53.5795 130.795 54.5795V60.4318H129.097V54.7386C129.097 54.1477 128.936 53.7197 128.614 53.4545C128.292 53.1894 127.907 53.0568 127.46 53.0568C126.907 53.0568 126.477 53.2273 126.17 53.5682C125.864 53.9053 125.71 54.339 125.71 54.8693V60.4318H124.017V54.6307C124.017 54.1572 123.869 53.7765 123.574 53.4886C123.278 53.2007 122.894 53.0568 122.42 53.0568C122.098 53.0568 121.801 53.142 121.528 53.3125C121.259 53.4792 121.042 53.7121 120.875 54.0113C120.712 54.3106 120.631 54.6572 120.631 55.0511V60.4318H118.932Z" fill="black"/>
</svg>
